<mxfile host="Electron" agent="Mozilla/5.0 (Windows NT 10.0; Win64; x64) AppleWebKit/537.36 (KHTML, like Gecko) draw.io/24.7.17 Chrome/128.0.6613.36 Electron/32.0.1 Safari/537.36" version="24.7.17">
  <diagram name="Страница — 1" id="yUmQyHLJOsZ1BbnAtelm">
    <mxGraphModel dx="714" dy="557" grid="1" gridSize="10" guides="1" tooltips="1" connect="1" arrows="1" fold="1" page="1" pageScale="1" pageWidth="827" pageHeight="1169" math="0" shadow="0">
      <root>
        <mxCell id="0" />
        <mxCell id="1" parent="0" />
        <mxCell id="-T9U8pawkiYSXp5u5A_s-10" style="edgeStyle=orthogonalEdgeStyle;rounded=0;orthogonalLoop=1;jettySize=auto;html=1;exitX=1;exitY=0.5;exitDx=0;exitDy=0;entryX=0.5;entryY=0;entryDx=0;entryDy=0;startArrow=classic;startFill=1;" edge="1" parent="1" source="-T9U8pawkiYSXp5u5A_s-1" target="-T9U8pawkiYSXp5u5A_s-4">
          <mxGeometry relative="1" as="geometry" />
        </mxCell>
        <mxCell id="-T9U8pawkiYSXp5u5A_s-11" style="edgeStyle=orthogonalEdgeStyle;rounded=0;orthogonalLoop=1;jettySize=auto;html=1;exitX=0;exitY=0.5;exitDx=0;exitDy=0;entryX=0.5;entryY=0;entryDx=0;entryDy=0;strokeColor=default;startArrow=classic;startFill=1;" edge="1" parent="1" source="-T9U8pawkiYSXp5u5A_s-1" target="-T9U8pawkiYSXp5u5A_s-3">
          <mxGeometry relative="1" as="geometry" />
        </mxCell>
        <mxCell id="-T9U8pawkiYSXp5u5A_s-14" style="edgeStyle=orthogonalEdgeStyle;rounded=0;orthogonalLoop=1;jettySize=auto;html=1;exitX=0.5;exitY=1;exitDx=0;exitDy=0;entryX=0.5;entryY=0;entryDx=0;entryDy=0;startArrow=classic;startFill=1;" edge="1" parent="1" source="-T9U8pawkiYSXp5u5A_s-1" target="-T9U8pawkiYSXp5u5A_s-6">
          <mxGeometry relative="1" as="geometry" />
        </mxCell>
        <mxCell id="-T9U8pawkiYSXp5u5A_s-1" value="Главная" style="rounded=1;whiteSpace=wrap;html=1;" vertex="1" parent="1">
          <mxGeometry x="354" y="160" width="120" height="60" as="geometry" />
        </mxCell>
        <mxCell id="-T9U8pawkiYSXp5u5A_s-12" style="edgeStyle=orthogonalEdgeStyle;rounded=0;orthogonalLoop=1;jettySize=auto;html=1;exitX=0.5;exitY=1;exitDx=0;exitDy=0;entryX=0.5;entryY=0;entryDx=0;entryDy=0;startArrow=classic;startFill=1;" edge="1" parent="1" source="-T9U8pawkiYSXp5u5A_s-3" target="-T9U8pawkiYSXp5u5A_s-5">
          <mxGeometry relative="1" as="geometry" />
        </mxCell>
        <mxCell id="-T9U8pawkiYSXp5u5A_s-3" value="Журналы" style="rounded=1;whiteSpace=wrap;html=1;" vertex="1" parent="1">
          <mxGeometry x="240" y="260" width="120" height="60" as="geometry" />
        </mxCell>
        <mxCell id="-T9U8pawkiYSXp5u5A_s-4" value="Контакты" style="rounded=1;whiteSpace=wrap;html=1;" vertex="1" parent="1">
          <mxGeometry x="480" y="260" width="120" height="60" as="geometry" />
        </mxCell>
        <mxCell id="-T9U8pawkiYSXp5u5A_s-13" style="edgeStyle=orthogonalEdgeStyle;rounded=0;orthogonalLoop=1;jettySize=auto;html=1;exitX=0.5;exitY=1;exitDx=0;exitDy=0;entryX=0;entryY=0.5;entryDx=0;entryDy=0;startArrow=classic;startFill=1;" edge="1" parent="1" source="-T9U8pawkiYSXp5u5A_s-5" target="-T9U8pawkiYSXp5u5A_s-6">
          <mxGeometry relative="1" as="geometry" />
        </mxCell>
        <mxCell id="-T9U8pawkiYSXp5u5A_s-5" value="Подробнее" style="rounded=1;whiteSpace=wrap;html=1;" vertex="1" parent="1">
          <mxGeometry x="240" y="360" width="120" height="60" as="geometry" />
        </mxCell>
        <mxCell id="-T9U8pawkiYSXp5u5A_s-6" value="Журнал" style="rounded=1;whiteSpace=wrap;html=1;" vertex="1" parent="1">
          <mxGeometry x="354" y="460" width="120" height="60" as="geometry" />
        </mxCell>
      </root>
    </mxGraphModel>
  </diagram>
</mxfile>
